<svg xmlns="http://www.w3.org/2000/svg" width="18" height="16.803" viewBox="0 0 18 16.803">
  <g id="Grupo_2343" data-name="Grupo 2343" transform="translate(-203 -290.598)">
    <path id="star" d="M30.215,48.786a.6.6,0,0,1-.352-.113l-4.823-3.5-4.823,3.5A.6.6,0,0,1,19.3,48l1.881-5.572L16.3,39.081a.6.6,0,0,1,.338-1.1h6.015L24.469,32.4a.6.6,0,0,1,1.142,0l1.815,5.588H33.44a.6.6,0,0,1,.339,1.1L28.9,42.424l1.88,5.57a.6.6,0,0,1-.567.792Z" transform="translate(186.959 258.613)" fill="#e8eaed"/>
    <path id="star-2" data-name="star" d="M25.04,45.177l-4.823,3.5A.6.6,0,0,1,19.3,48l1.881-5.572L16.3,39.081a.6.6,0,0,1,.338-1.1h6.015L24.469,32.4c.08-.247.571-.415.571-.415Z" transform="translate(186.959 258.613)" fill="#fd0"/>
  </g>
</svg>
